HIERARCHY
ROOT Hips
{
  OFFSET 5.80788e-005 67.184 3.4734
  CHANNELS 6 Xposition Yposition Zposition Zrotation Xrotation Yrotation
  JOINT Chest
  {
    OFFSET 0 8.7983 -4.7612
    CHANNELS 6 Xposition Yposition Zposition Zrotation Xrotation Yrotation
    JOINT Chest2
    {
      OFFSET 0 8.0291 0.4195
      CHANNELS 6 Xposition Yposition Zposition Zrotation Xrotation Yrotation
      JOINT Chest3
      {
        OFFSET 0 9.9351 -2.2114
        CHANNELS 6 Xposition Yposition Zposition Zrotation Xrotation Yrotation
        JOINT Neck
        {
          OFFSET 0 22.3885 -0.4656
          CHANNELS 6 Xposition Yposition Zposition Zrotation Xrotation Yrotation
          JOINT Head
          {
            OFFSET -0.0001 12.643 3.4389
            CHANNELS 6 Xposition Yposition Zposition Zrotation Xrotation Yrotation
            End Site
            {
              OFFSET 0.0001 17.6655 0.5274
            }
          }
        }
        JOINT LeftCollar
        {
          OFFSET 2.2603 21.606 7.4023
          CHANNELS 6 Xposition Yposition Zposition Zrotation Xrotation Yrotation
          JOINT LeftShoulder
          {
            OFFSET 13.5163 -1.1332 -5.0146
            CHANNELS 6 Xposition Yposition Zposition Zrotation Xrotation Yrotation
            JOINT LeftElbow
            {
              OFFSET -0.0995 -28.05 -0.2431
              CHANNELS 6 Xposition Yposition Zposition Zrotation Xrotation Yrotation
              JOINT LeftWrist
              {
                OFFSET 0.0679 -23.3996 -0.1402
                CHANNELS 6 Xposition Yposition Zposition Zrotation Xrotation Yrotation
                JOINT LeftFinger1
                {
                  OFFSET 0.7932 -9.069 2.5189
                  CHANNELS 6 Xposition Yposition Zposition Zrotation Xrotation Yrotation
                  JOINT LeftFinger11
                  {
                    OFFSET -0.8272 -3.3923 0.5977
                    CHANNELS 6 Xposition Yposition Zposition Zrotation Xrotation Yrotation
                    JOINT LeftFinger12
                    {
                      OFFSET -0.5649 -2.3158 0.4082
                      CHANNELS 6 Xposition Yposition Zposition Zrotation Xrotation Yrotation
                      End Site
                      {
                        OFFSET -0.4919 -1.6479 0.2673
                      }
                    }
                  }
                }
                JOINT LeftFinger2
                {
                  OFFSET 0.9159 -9.2044 0.2193
                  CHANNELS 6 Xposition Yposition Zposition Zrotation Xrotation Yrotation
                  JOINT LeftFinger21
                  {
                    OFFSET 0.0117 -4.1944 -0.0248
                    CHANNELS 6 Xposition Yposition Zposition Zrotation Xrotation Yrotation
                    JOINT LeftFinger22
                    {
                      OFFSET 0.0071 -2.3249 -0.0142
                      CHANNELS 6 Xposition Yposition Zposition Zrotation Xrotation Yrotation
                      End Site
                      {
                        OFFSET -0.1475 -2.0882 0.0028
                      }
                    }
                  }
                }
                JOINT LeftFinger3
                {
                  OFFSET 0.6113 -8.7231 -2.0637
                  CHANNELS 6 Xposition Yposition Zposition Zrotation Xrotation Yrotation
                  JOINT LeftFinger31
                  {
                    OFFSET -0.1927 -3.8059 -0.2383
                    CHANNELS 6 Xposition Yposition Zposition Zrotation Xrotation Yrotation
                    JOINT LeftFinger32
                    {
                      OFFSET -0.1091 -2.1688 -0.1362
                      CHANNELS 6 Xposition Yposition Zposition Zrotation Xrotation Yrotation
                      End Site
                      {
                        OFFSET -0.2358 -1.9176 -0.0906
                      }
                    }
                  }
                }
                JOINT LeftFinger4
                {
                  OFFSET -0.6151 -8.0947 -3.5641
                  CHANNELS 6 Xposition Yposition Zposition Zrotation Xrotation Yrotation
                  JOINT LeftFinger41
                  {
                    OFFSET -0.4882 -2.341 -0.6462
                    CHANNELS 6 Xposition Yposition Zposition Zrotation Xrotation Yrotation
                    JOINT LeftFinger42
                    {
                      OFFSET -0.3575 -1.7167 -0.4742
                      CHANNELS 6 Xposition Yposition Zposition Zrotation Xrotation Yrotation
                      End Site
                      {
                        OFFSET -0.4187 -1.5237 -0.3496
                      }
                    }
                  }
                }
                JOINT LeftFinger0
                {
                  OFFSET -1.42 -1.8761 1.4223
                  CHANNELS 6 Xposition Yposition Zposition Zrotation Xrotation Yrotation
                  JOINT LeftFinger01
                  {
                    OFFSET -1.1471 -3.4929 2.6334
                    CHANNELS 6 Xposition Yposition Zposition Zrotation Xrotation Yrotation
                    JOINT LeftFinger02
                    {
                      OFFSET -0.823 -2.3 1.6571
                      CHANNELS 6 Xposition Yposition Zposition Zrotation Xrotation Yrotation
                      End Site
                      {
                        OFFSET -0.5822 -1.6914 1.1582
                      }
                    }
                  }
                }
              }
            }
          }
        }
        JOINT RightCollar
        {
          OFFSET -2.2603 21.606 7.4023
          CHANNELS 6 Xposition Yposition Zposition Zrotation Xrotation Yrotation
          JOINT RightShoulder
          {
            OFFSET -13.5187 -1.1334 -5.0155
            CHANNELS 6 Xposition Yposition Zposition Zrotation Xrotation Yrotation
            JOINT RightElbow
            {
              OFFSET 0.0994 -28.0499 -0.2431
              CHANNELS 6 Xposition Yposition Zposition Zrotation Xrotation Yrotation
              JOINT RightWrist
              {
                OFFSET -0.0679 -23.3996 -0.1402
                CHANNELS 6 Xposition Yposition Zposition Zrotation Xrotation Yrotation
                JOINT RightFinger1
                {
                  OFFSET -0.7932 -9.0691 2.5189
                  CHANNELS 6 Xposition Yposition Zposition Zrotation Xrotation Yrotation
                  JOINT RightFinger11
                  {
                    OFFSET 0.8272 -3.3923 0.5977
                    CHANNELS 6 Xposition Yposition Zposition Zrotation Xrotation Yrotation
                    JOINT RightFinger12
                    {
                      OFFSET 0.565 -2.3158 0.4082
                      CHANNELS 6 Xposition Yposition Zposition Zrotation Xrotation Yrotation
                      End Site
                      {
                        OFFSET 0.4919 -1.6479 0.2673
                      }
                    }
                  }
                }
                JOINT RightFinger2
                {
                  OFFSET -0.916 -9.2044 0.2193
                  CHANNELS 6 Xposition Yposition Zposition Zrotation Xrotation Yrotation
                  JOINT RightFinger21
                  {
                    OFFSET -0.0117 -4.1944 -0.0248
                    CHANNELS 6 Xposition Yposition Zposition Zrotation Xrotation Yrotation
                    JOINT RightFinger22
                    {
                      OFFSET -0.0071 -2.3249 -0.0142
                      CHANNELS 6 Xposition Yposition Zposition Zrotation Xrotation Yrotation
                      End Site
                      {
                        OFFSET 0.1475 -2.0882 0.0028
                      }
                    }
                  }
                }
                JOINT RightFinger3
                {
                  OFFSET -0.6113 -8.7231 -2.0637
                  CHANNELS 6 Xposition Yposition Zposition Zrotation Xrotation Yrotation
                  JOINT RightFinger31
                  {
                    OFFSET 0.1927 -3.8059 -0.2383
                    CHANNELS 6 Xposition Yposition Zposition Zrotation Xrotation Yrotation
                    JOINT RightFinger32
                    {
                      OFFSET 0.1091 -2.1688 -0.1362
                      CHANNELS 6 Xposition Yposition Zposition Zrotation Xrotation Yrotation
                      End Site
                      {
                        OFFSET 0.2358 -1.9176 -0.0906
                      }
                    }
                  }
                }
                JOINT RightFinger4
                {
                  OFFSET 0.6151 -8.0947 -3.564
                  CHANNELS 6 Xposition Yposition Zposition Zrotation Xrotation Yrotation
                  JOINT RightFinger41
                  {
                    OFFSET 0.4882 -2.341 -0.6462
                    CHANNELS 6 Xposition Yposition Zposition Zrotation Xrotation Yrotation
                    JOINT RightFinger42
                    {
                      OFFSET 0.3574 -1.7166 -0.4742
                      CHANNELS 6 Xposition Yposition Zposition Zrotation Xrotation Yrotation
                      End Site
                      {
                        OFFSET 0.4187 -1.5237 -0.3496
                      }
                    }
                  }
                }
                JOINT RightFinger0
                {
                  OFFSET 1.4199 -1.8761 1.4221
                  CHANNELS 6 Xposition Yposition Zposition Zrotation Xrotation Yrotation
                  JOINT RightFinger01
                  {
                    OFFSET 1.1472 -3.4929 2.6336
                    CHANNELS 6 Xposition Yposition Zposition Zrotation Xrotation Yrotation
                    JOINT RightFinger02
                    {
                      OFFSET 0.8229 -2.3 1.6571
                      CHANNELS 6 Xposition Yposition Zposition Zrotation Xrotation Yrotation
                      End Site
                      {
                        OFFSET 0.5822 -1.6914 1.1582
                      }
                    }
                  }
                }
              }
            }
          }
        }
      }
    }
  }
  JOINT RightHip
  {
    OFFSET -9.412 3.9771 -0.7758
    CHANNELS 6 Xposition Yposition Zposition Zrotation Xrotation Yrotation
    JOINT RightKnee
    {
      OFFSET -0.7531 -40.938 0
      CHANNELS 6 Xposition Yposition Zposition Zrotation Xrotation Yrotation
      JOINT RightAnkle
      {
        OFFSET 0 -40.1986 0
        CHANNELS 6 Xposition Yposition Zposition Zrotation Xrotation Yrotation
        JOINT RightToe
        {
          OFFSET 0 -4.4182 9.239
          CHANNELS 6 Xposition Yposition Zposition Zrotation Xrotation Yrotation
          End Site
          {
            OFFSET 0 0 6.1981
          }
        }
      }
    }
  }
  JOINT LeftHip
  {
    OFFSET 9.4119 3.9773 -0.7758
    CHANNELS 6 Xposition Yposition Zposition Zrotation Xrotation Yrotation
    JOINT LeftKnee
    {
      OFFSET 0.7532 -40.9383 0
      CHANNELS 6 Xposition Yposition Zposition Zrotation Xrotation Yrotation
      JOINT LeftAnkle
      {
        OFFSET 0 -40.1986 0
        CHANNELS 6 Xposition Yposition Zposition Zrotation Xrotation Yrotation
        JOINT LeftToe
        {
          OFFSET 0 -4.4182 9.239
          CHANNELS 6 Xposition Yposition Zposition Zrotation Xrotation Yrotation
          End Site
          {
            OFFSET 0 0 6.1981
          }
        }
      }
    }
  }
}
MOTION
Frames:	4
Frame Time:	0.0333333
5.80788e-005 67.184 3.4734 0 0 -0 0 8.7983 -4.7612 0 0 -0 0 8.0291 0.4195 0 0 -0 0 9.9351 -2.2114 0 0 -0 0 22.3885 -0.4656 0 0 -0 -0.0001 12.643 3.4389 0 0 -0 2.2603 21.606 7.4023 0 0 -12.5014 13.5163 -1.1332 -5.0146 88.1196 14.2451 10.6914 -0.0995 -28.05 -0.2431 -0.00160068 -0.00239207 0.000740045 0.0679 -23.3996 -0.1402 -8.4365e-005 7.00714e-005 -9.52055e-007 0.7932 -9.069 2.5189 9.93923e-017 -1.98785e-016 -1.59028e-015 -0.8272 -3.3923 0.5977 9.93923e-017 -5.96354e-016 -1.59028e-015 -0.5649 -2.3158 0.4082 -9.93923e-017 -5.96354e-016 -1.59028e-015 0.9159 -9.2044 0.2193 9.93923e-017 -1.98785e-016 -1.59028e-015 0.0117 -4.1944 -0.0248 -0.0128176 0.00232552 8.52707e-005 0.0071 -2.3249 -0.0142 9.93923e-017 5.96354e-016 -0 0.6113 -8.7231 -2.0637 9.93923e-017 -1.98785e-016 -1.59028e-015 -0.1927 -3.8059 -0.2383 -0.0160551 0.00299681 0.000857156 -0.1091 -2.1688 -0.1362 -2.48481e-016 0 3.18055e-015 -0.6151 -8.0947 -3.5641 9.93923e-017 -1.98785e-016 -1.59028e-015 -0.4882 -2.341 -0.6462 -0.0125865 0.0031206 0.00282719 -0.3575 -1.7167 -0.4742 0 1.98785e-016 -0 -1.42 -1.8761 1.4223 9.93923e-017 -1.98785e-016 -1.59028e-015 -1.1471 -3.4929 2.6334 9.93923e-017 -5.96354e-016 -1.59028e-015 -0.823 -2.3 1.6571 -9.93923e-017 -5.96354e-016 -1.59028e-015 -2.2603 21.606 7.4023 -0.865644 0.16582 7.03859 -13.5187 -1.1334 -5.0155 -88.0329 10.2057 -10.5567 0.0994 -28.0499 -0.2431 0.0015593 -0.00248883 -0.000788628 -0.0679 -23.3996 -0.1402 7.87605e-005 4.10553e-005 1.24965e-005 -0.7932 -9.0691 2.5189 -3.97569e-016 -7.95139e-016 3.18055e-015 0.8272 -3.3923 0.5977 -1.98785e-016 -3.97569e-016 3.18055e-015 0.565 -2.3158 0.4082 -1.98785e-016 0 3.18055e-015 -0.916 -9.2044 0.2193 -3.97569e-016 -7.95139e-016 3.18055e-015 -0.0117 -4.1944 -0.0248 0.0129473 0.00231697 -8.70038e-005 -0.0071 -2.3249 -0.0142 9.93923e-017 -7.95139e-016 1.59028e-015 -0.6113 -8.7231 -2.0637 -3.97569e-016 -7.95139e-016 3.18055e-015 0.1927 -3.8059 -0.2383 0.0163314 0.00303369 -0.000872333 0.1091 -2.1688 -0.1362 3.97569e-016 7.95139e-016 -3.18055e-015 0.6151 -8.0947 -3.564 -3.97569e-016 -7.95139e-016 3.18055e-015 0.4882 -2.341 -0.6462 0.0145763 0.00367772 -0.00326275 0.3574 -1.7166 -0.4742 9.93923e-017 -3.97569e-016 -0 1.4199 -1.8761 1.4221 -3.97569e-016 -7.95139e-016 3.18055e-015 1.1472 -3.4929 2.6336 -1.98785e-016 -3.97569e-016 3.18055e-015 0.8229 -2.3 1.6571 -1.98785e-016 0 3.18055e-015 -9.412 3.9771 -0.7758 3.42485 1.36937 -0.0640303 -0.7531 -40.938 0 0.000136572 0.69354 0.00145564 1.77636e-015 -40.1986 -1.11022e-016 -3.42573 -2.06297 -0.0607933 8.88178e-016 -4.4182 9.239 -3.19502e-024 0 -1.48106e-024 9.4119 3.9773 -0.7758 -3.42498 1.36123 0.0639712 0.7532 -40.9383 2.22045e-016 -6.769e-005 0.712612 -0.0012277 8.88179e-016 -40.1986 0 3.42582 -2.07388 0.0612819 -8.88178e-016 -4.4182 9.239 2.55305e-023 0 -2.31416e-026 
41.7745 41.0785 18.0446 179.97 59.0055 -29.9888 7.10543e-015 8.7983 -4.7612 -1.30084 10.2023 3.99752 0 8.0291 0.4195 -3.41706 20.2824 8.4375 -7.10543e-015 9.9351 -2.2114 -3.41706 20.2824 8.4375 3.55271e-015 22.3885 -0.4656 5.51552e-005 13.9967 -0.000118814 -0.0001 12.643 3.4389 -0.0926712 -0.148631 -0.000119326 2.2603 21.606 7.4023 -32.5695 -2.20835 -20.3646 13.5163 -1.1332 -5.0146 53.8768 13.6626 -37.273 -0.0995 -28.05 -0.2431 1.86897 -9.0836 -35.6303 0.0679 -23.3996 -0.1402 6.96297 -8.52075 16.8496 0.7932 -9.069 2.5189 -7.95139e-016 6.36111e-015 -1.19271e-015 -0.8272 -3.3923 0.5977 -7.95139e-016 6.36111e-015 5.96354e-016 -0.5649 -2.3158 0.4082 -1.62869e-006 5.06939e-006 -4.95307e-007 0.9159 -9.2044 0.2193 -7.95139e-016 6.36111e-015 -1.19271e-015 0.0117 -4.1944 -0.0248 -0.0128649 0.00232904 7.62524e-005 0.0071 -2.3249 -0.0142 -1.44121e-006 4.95046e-006 6.91358e-007 0.6113 -8.7231 -2.0637 -7.95139e-016 6.36111e-015 -1.19271e-015 -0.1927 -3.8059 -0.2383 -0.015983 0.00298939 0.000854088 -0.1091 -2.1688 -0.1362 -7.95139e-016 -3.18055e-015 -3.18055e-015 -0.6151 -8.0947 -3.5641 -7.95139e-016 6.36111e-015 -1.19271e-015 -0.4882 -2.341 -0.6462 -0.0126291 0.00313369 0.00283399 -0.3575 -1.7167 -0.4742 -7.00937e-007 -3.48242e-006 -4.30279e-006 -1.42 -1.8761 1.4223 -7.95139e-016 6.36111e-015 -1.19271e-015 -1.1471 -3.4929 2.6334 -7.95139e-016 6.36111e-015 5.96354e-016 -0.823 -2.3 1.6571 -1.62869e-006 5.06939e-006 -4.95307e-007 -2.2603 21.606 7.4023 -19.8582 -13.9059 8.0862 -13.5187 -1.1334 -5.0155 -22.632 8.15221 38.3283 0.0994 -28.0499 -0.2431 9.98902 -31.8337 39.9369 -0.0679 -23.3996 -0.1402 0.141744 15.1756 -2.24528 -0.7932 -9.0691 2.5189 2.38542e-015 3.18055e-015 -2.38542e-015 0.8272 -3.3923 0.5977 3.18055e-015 3.18055e-015 -3.97569e-016 0.565 -2.3158 0.4082 1.59028e-015 3.18055e-015 1.78906e-015 -0.916 -9.2044 0.2193 2.38542e-015 3.18055e-015 -2.38542e-015 -0.0117 -4.1944 -0.0248 0.012981 0.0023211 -7.91374e-005 -0.0071 -2.3249 -0.0142 -1.59028e-015 3.18055e-015 3.97569e-015 -0.6113 -8.7231 -2.0637 2.38542e-015 3.18055e-015 -2.38542e-015 0.1927 -3.8059 -0.2383 0.0163173 0.00303483 -0.000870352 0.1091 -2.1688 -0.1362 -4.77083e-015 3.18055e-015 1.23246e-014 0.6151 -8.0947 -3.564 2.38542e-015 3.18055e-015 -2.38542e-015 0.4882 -2.341 -0.6462 0.0145683 0.00368074 -0.00325622 0.3574 -1.7166 -0.4742 -7.95139e-016 -3.18055e-015 -2.98177e-015 1.4199 -1.8761 1.4221 2.38542e-015 3.18055e-015 -2.38542e-015 1.1472 -3.4929 2.6336 3.18055e-015 3.18055e-015 -3.97569e-016 0.8229 -2.3 1.6571 1.59028e-015 3.18055e-015 1.78906e-015 -9.412 3.9771 -0.7758 -76.9571 -34.3888 -66.9769 -0.7531 -40.938 0 -120.543 66.7914 148.885 3.55271e-015 -40.1986 0 -26.4249 7.06273 4.28925 7.10543e-015 -4.4182 9.239 3.18055e-015 6.36111e-015 4.77083e-015 9.4119 3.9773 -0.7758 63.3442 -50.4468 64.1514 0.7532 -40.9383 0 3.08021 18.6142 -0.389053 7.10543e-015 -40.1986 0 3.30419 -1.10616 0.25005 -7.10543e-015 -4.4182 9.239 2.97175e-009 6.58097e-012 -5.3272e-008 
41.7761 41.0794 18.0477 179.97 59.0055 -29.9888 0 8.7983 -4.7612 -1.22155 10.0185 4.02122 1.06581e-014 8.0291 0.4195 -3.24168 19.9206 8.4592 0 9.9351 -2.2114 -3.24168 19.9206 8.45921 3.55271e-015 22.3885 -0.4656 -0.520392 13.9962 0.125723 -0.0001 12.643 3.4389 -0.109343 -0.199722 -0.162828 2.2603 21.606 7.4023 -33.6188 -1.86458 -19.7049 13.5163 -1.1332 -5.0146 54.8887 13.7533 -37.4745 -0.0995 -28.05 -0.2431 1.82223 -8.5773 -35.6346 0.0679 -23.3996 -0.1402 6.85798 -8.79644 16.272 0.7932 -9.069 2.5189 7.95139e-016 0 -1.59028e-015 -0.8272 -3.3923 0.5977 7.95139e-016 3.18055e-015 -0 -0.5649 -2.3158 0.4082 7.95139e-016 6.36111e-015 3.97569e-016 0.9159 -9.2044 0.2193 7.95139e-016 0 -1.59028e-015 0.0117 -4.1944 -0.0248 -0.0128326 0.00233973 8.73179e-005 0.0071 -2.3249 -0.0142 -7.95139e-016 3.18055e-015 1.39149e-015 0.6113 -8.7231 -2.0637 7.95139e-016 0 -1.59028e-015 -0.1927 -3.8059 -0.2383 -0.0160519 0.00300477 0.000861055 -0.1091 -2.1688 -0.1362 0 0 -1.39149e-015 -0.6151 -8.0947 -3.5641 7.95139e-016 0 -1.59028e-015 -0.4882 -2.341 -0.6462 -0.0125885 0.00313031 0.00282774 -0.3575 -1.7167 -0.4742 1.62565e-006 -3.33569e-006 5.04965e-007 -1.42 -1.8761 1.4223 7.95139e-016 0 -1.59028e-015 -1.1471 -3.4929 2.6334 7.95139e-016 3.18055e-015 -0 -0.823 -2.3 1.6571 7.95139e-016 6.36111e-015 3.97569e-016 -2.2603 21.606 7.4023 -19.6925 -13.0506 7.94217 -13.5187 -1.1334 -5.0155 -22.632 8.15233 38.3283 0.0994 -28.0499 -0.2431 9.98886 -31.8338 39.9368 -0.0679 -23.3996 -0.1402 0.0585843 15.3607 -1.79282 -0.7932 -9.0691 2.5189 7.95139e-016 3.18055e-015 -0 0.8272 -3.3923 0.5977 1.21382e-031 3.18055e-015 -2.18663e-015 0.565 -2.3158 0.4082 7.95139e-016 -3.18055e-015 -1.19271e-015 -0.916 -9.2044 0.2193 7.95139e-016 3.18055e-015 -0 -0.0117 -4.1944 -0.0248 0.0129188 0.00230445 -7.99538e-005 -0.0071 -2.3249 -0.0142 1.59028e-015 6.36111e-015 1.98785e-016 -0.6113 -8.7231 -2.0637 7.95139e-016 3.18055e-015 -0 0.1927 -3.8059 -0.2383 0.0163495 0.00304375 -0.000870171 0.1091 -2.1688 -0.1362 2.38542e-015 3.18055e-015 -3.37934e-015 0.6151 -8.0947 -3.564 7.95139e-016 3.18055e-015 -0 0.4882 -2.341 -0.6462 0.0146384 0.00369758 -0.00327647 0.3574 -1.7166 -0.4742 -8.82781e-032 -1.27222e-014 -3.97569e-016 1.4199 -1.8761 1.4221 7.95139e-016 3.18055e-015 -0 1.1472 -3.4929 2.6336 1.21382e-031 3.18055e-015 -2.18663e-015 0.8229 -2.3 1.6571 7.95139e-016 -3.18055e-015 -1.19271e-015 -9.412 3.9771 -0.7758 -77.5867 -34.8876 -67.4243 -0.7531 -40.938 0 -121.764 66.8262 149.976 0 -40.1986 -1.42109e-014 -26.4385 7.03552 4.28799 -3.55271e-015 -4.4182 9.239 -2.78606e-006 -6.36892e-007 -1.52155e-005 9.4119 3.9773 -0.7758 63.4085 -50.4679 64.2198 0.7532 -40.9383 -3.55271e-015 3.08773 19.0265 -0.403859 0 -40.1986 -7.10543e-015 3.30316 -1.15361 0.257215 0 -4.4182 9.239 -9.80683e-009 1.66404e-009 1.59763e-007 
41.7777 41.0804 18.0509 179.97 59.0055 -29.9888 7.10543e-015 8.7983 -4.7612 -1.14106 9.83308 4.04296 0 8.0291 0.4195 -3.06361 19.5558 8.47729 -7.10543e-015 9.9351 -2.2114 -3.06362 19.5558 8.4773 0 22.3885 -0.4656 -1.04136 13.9939 0.251693 -0.0001 12.643 3.4389 -0.12617 -0.2508 -0.325615 2.2603 21.606 7.4023 -34.6741 -1.53223 -19.0377 13.5163 -1.1332 -5.0146 55.9025 13.8408 -37.6778 -0.0995 -28.05 -0.2431 1.77576 -8.07092 -35.6385 0.0679 -23.3996 -0.1402 6.75005 -9.07121 15.6932 0.7932 -9.069 2.5189 2.38542e-015 0 2.18663e-015 -0.8272 -3.3923 0.5977 2.38542e-015 0 2.98177e-015 -0.5649 -2.3158 0.4082 1.59028e-015 3.18055e-015 5.36719e-015 0.9159 -9.2044 0.2193 2.38542e-015 0 2.18663e-015 0.0117 -4.1944 -0.0248 -0.0128171 0.00231973 8.53887e-005 0.0071 -2.3249 -0.0142 -2.20695e-032 3.18055e-015 3.97569e-016 0.6113 -8.7231 -2.0637 2.38542e-015 0 2.18663e-015 -0.1927 -3.8059 -0.2383 -0.0160645 0.00298801 0.000858096 -0.1091 -2.1688 -0.1362 -1.70968e-006 -1.08983e-007 -1.12107e-006 -0.6151 -8.0947 -3.5641 2.38542e-015 0 2.18663e-015 -0.4882 -2.341 -0.6462 -0.0126022 0.00312931 0.00283302 -0.3575 -1.7167 -0.4742 -2.97939e-031 9.54166e-015 1.78906e-015 -1.42 -1.8761 1.4223 2.38542e-015 0 2.18663e-015 -1.1471 -3.4929 2.6334 2.38542e-015 0 2.98177e-015 -0.823 -2.3 1.6571 1.59028e-015 3.18055e-015 5.36719e-015 -2.2603 21.606 7.4023 -19.5251 -12.1948 7.79596 -13.5187 -1.1334 -5.0155 -22.632 8.15222 38.3283 0.0994 -28.0499 -0.2431 9.98897 -31.8337 39.9368 -0.0679 -23.3996 -0.1402 -0.0262155 15.5451 -1.33958 -0.7932 -9.0691 2.5189 -3.22799e-006 -3.89203e-006 -1.06281e-006 0.8272 -3.3923 0.5977 -2.20695e-032 6.36111e-015 1.98785e-016 0.565 -2.3158 0.4082 -7.95139e-016 3.18055e-015 -3.97569e-016 -0.916 -9.2044 0.2193 -3.22799e-006 -3.89203e-006 -1.06281e-006 -0.0117 -4.1944 -0.0248 0.0129143 0.00231706 -8.72303e-005 -0.0071 -2.3249 -0.0142 2.38542e-015 0 -1.78906e-015 -0.6113 -8.7231 -2.0637 -3.22799e-006 -3.89203e-006 -1.06281e-006 0.1927 -3.8059 -0.2383 0.0163162 0.00303807 -0.000884749 0.1091 -2.1688 -0.1362 3.73818e-006 5.41393e-007 4.78599e-006 0.6151 -8.0947 -3.564 -3.22799e-006 -3.89203e-006 -1.06281e-006 0.4882 -2.341 -0.6462 0.014629 0.00369339 -0.00327744 0.3574 -1.7166 -0.4742 -1.614e-006 7.6441e-008 -5.31501e-007 1.4199 -1.8761 1.4221 -3.22799e-006 -3.89203e-006 -1.06281e-006 1.1472 -3.4929 2.6336 -2.20695e-032 6.36111e-015 1.98785e-016 0.8229 -2.3 1.6571 -7.95139e-016 3.18055e-015 -3.97569e-016 -9.412 3.9771 -0.7758 -78.2249 -35.3827 -67.8812 -0.7531 -40.938 0 -122.988 66.8516 151.07 -3.55271e-015 -40.1986 1.42109e-014 -26.4521 7.00801 4.28654 7.10543e-015 -4.4182 9.239 3.18055e-015 -9.54166e-015 -6.36111e-015 9.4119 3.9773 -0.7758 63.4716 -50.4885 64.2873 0.7532 -40.9383 3.55271e-015 3.09539 19.4368 -0.418683 -7.10543e-015 -40.1986 0 3.30213 -1.20002 0.264273 -7.10543e-015 -4.4182 9.239 5.73991e-015 -4.26031e-007 -0 
